# xmcd
#
# Track frame offsets: 
#        150
#        11357
#        22846
#        35601
#        46906
#        58931
#        69222
#        79837
#        89214
#        100518
#        110588
#        121469
#        132986
#        142588
#        154379
#        166240
#        178820
#        190525
#        203878
#        214543
#        226272
#        237900
#        248457
#        260830
#        273693
#
# Disc length: 3814 seconds
#
# Revision: 0
# Processed by: cddbd v1.5.2PL0 Copyright (c) Steve Scherf et al.
# Submitted via: ExactAudioCopy v1.3
#
DISCID=550ee419
DTITLE=Sonny James - The Capitol Hits 1963-1972_CD2
DYEAR=2019
DGENRE=Country
TTITLE0=Room In Your Heart
TTITLE1=The Minute You're Gone
TTITLE2=Going Through The Motions (Of Living)
TTITLE3=Baltimore
TTITLE4=Ask Marie
TTITLE5=You're The Only World I Know
TTITLE6=I'll Keep Holding On (Just to Your Love)
TTITLE7=Behind The Tear
TTITLE8=Take Good Care Of Her
TTITLE9=True Love's A Blessing
TTITLE10=Need You
TTITLE11=A World Of Our Own
TTITLE12=Heaven Says Hello
TTITLE13=Born To Be With You
TTITLE14=Only The Lonely
TTITLE15=Running Bear
TTITLE16=It's Just A Matter Of Time
TTITLE17=Endlessly
TTITLE18=Empty Arms
TTITLE19=Bright Lights, Big City
TTITLE20=Here Comes Honey Again
TTITLE21=Only Love Can Break A Heart
TTITLE22=That's Why I Love You Like I Do
TTITLE23=My Love
TTITLE24=Don't Keep Me Hangin' On
EXTD=
EXTT0=
EXTT1=
EXTT2=
EXTT3=
EXTT4=
EXTT5=
EXTT6=
EXTT7=
EXTT8=
EXTT9=
EXTT10=
EXTT11=
EXTT12=
EXTT13=
EXTT14=
EXTT15=
EXTT16=
EXTT17=
EXTT18=
EXTT19=
EXTT20=
EXTT21=
EXTT22=
EXTT23=
EXTT24=
PLAYORDER=
